<?xml version="1.0" encoding="UTF-8"?>
<svg version="1.1" xmlns="http://www.w3.org/2000/svg" width="3334" height="3334">
<path d="M0 0 C1100.22 0 2200.44 0 3334 0 C3334 1100.22 3334 2200.44 3334 3334 C2233.78 3334 1133.56 3334 0 3334 C0 2233.78 0 1133.56 0 0 Z " fill="#FEFEFE" transform="translate(0,0)"/>
<path d="M0 0 C0.71130671 0.00262701 1.42261342 0.00525403 2.15547487 0.00796065 C2.90795501 0.0068068 3.66043514 0.00565296 4.4357177 0.00446415 C6.9894575 0.00179038 9.54313586 0.00632584 12.09687254 0.01075396 C13.93327191 0.01031841 15.76967122 0.00944381 17.60607019 0.00816479 C22.67751904 0.00591659 27.74894699 0.00994554 32.82039317 0.01494285 C38.27986764 0.01924253 43.73934083 0.01780128 49.19881651 0.01704058 C58.66608482 0.01651504 68.13334626 0.019665 77.60061285 0.02527842 C91.28886224 0.03338932 104.97710829 0.03600822 118.66535982 0.03726641 C140.87112441 0.03945758 163.07688578 0.04611085 185.2826483 0.05556902 C206.85947102 0.06474873 228.43629276 0.07183465 250.01311705 0.07607684 C251.01020208 0.07627412 251.01020208 0.07627412 252.02743024 0.0764754 C259.36500762 0.07792471 266.70258502 0.07931656 274.04016241 0.08068487 C329.38767652 0.09105949 384.73518664 0.10867956 440.08269712 0.13100848 C439.41052672 3.68541407 438.52265054 6.77111717 437.09588072 10.10024676 C436.68329008 11.06943041 436.27069944 12.03861407 435.84560606 13.03716692 C435.39533049 14.08133776 434.94505491 15.1255086 434.48113462 16.20132098 C433.7790135 17.84504183 433.7790135 17.84504183 433.06270811 19.52196917 C431.79548499 22.48612986 430.52405707 25.44844179 429.25069639 28.40996966 C427.9184018 31.51144482 426.59165811 34.61529273 425.26433775 37.7188991 C422.66352833 43.79787745 420.05691843 49.87434723 417.44829771 55.9499782 C415.63960726 60.16314209 413.83357112 64.37744047 412.02800962 68.59194598 C410.3028362 72.61813054 408.5772317 76.64412791 406.84978697 80.66933855 C401.23721036 93.75069297 395.65936545 106.84681359 390.08269712 119.94350848 C389.34936659 121.66564562 389.34936659 121.66564562 388.60122129 123.42257342 C384.12908812 133.92526459 379.65805278 144.42842285 375.18865415 154.93227801 C364.02044762 181.17948329 352.82714224 207.41556607 341.5817816 233.62981829 C333.54133798 252.37420685 325.53572671 271.13320331 317.54900572 289.90053973 C311.90994541 303.15110104 306.26329017 316.39819701 300.58269712 329.63100848 C294.07737436 344.78652997 287.6089413 359.95771241 281.14519712 375.13100848 C280.40801451 376.86097063 280.40801451 376.86097063 279.65593931 378.62588152 C276.88061482 385.13933172 274.10858944 391.65416808 271.34096739 398.17089495 C270.13829435 401.00021456 268.93207052 403.82799926 267.72551939 406.65566668 C267.01365473 408.3309583 266.30197265 410.00632751 265.59050962 411.68178973 C265.27811842 412.41119769 264.96572721 413.14060564 264.64386961 413.89211687 C254.12176857 438.74673971 248.63640217 466.51048752 248.83269712 493.44350848 C248.83579893 494.11732561 248.83890074 494.79114275 248.84209654 495.48537859 C248.89937128 506.14036882 249.27258397 516.61890707 251.08269712 527.13100848 C251.20628599 527.85513934 251.32987486 528.57927019 251.45720884 529.32534441 C258.63587039 569.71728006 275.60692819 607.69705009 302.08269712 639.13100848 C302.52194517 639.6590407 302.96119322 640.18707293 303.41375181 640.73110613 C312.58751343 651.74645227 322.09820872 662.01376382 333.36004087 670.96303973 C335.12568637 672.36896978 336.86973535 673.8026308 338.58660337 675.26772723 C350.87167412 685.71472632 364.5937481 694.13430142 378.71941587 701.83950457 C402.78690531 714.99208919 426.06549351 729.00689848 448.89519712 744.19350848 C449.71264402 744.73632464 450.53009092 745.2791408 451.37230894 745.83840594 C466.32363667 755.78191965 481.09557271 766.01711596 495.20769712 777.13100848 C495.94012632 777.70439959 496.67255552 778.2777907 497.42717955 778.8685573 C512.25199157 790.51240783 526.88797306 802.4215668 540.84050962 815.10366473 C542.79478137 816.87068047 544.7732945 818.60014377 546.77019712 820.31850848 C558.48669872 830.59050988 569.55850084 841.50334244 580.58269712 852.50600848 C581.19665342 853.11737658 581.81060972 853.72874468 582.44317076 854.35863909 C594.34759653 866.22351594 594.34759653 866.22351594 599.66375181 872.46694598 C601.85128305 875.03236458 604.15981025 877.47655785 606.45769712 879.94350848 C610.74700415 884.58658036 614.80948331 889.36542465 618.77410337 894.29116473 C620.85360366 896.84919638 622.97321995 899.36243642 625.11712095 901.8661159 C631.02216563 908.76783595 636.64049027 915.85898008 642.08269712 923.13100848 C642.60202818 923.82436297 643.12135923 924.51771746 643.65642759 925.23208269 C657.94190831 944.35585761 671.49084997 963.84752962 684.08269712 984.13100848 C684.49825865 984.79874285 684.91382017 985.46647723 685.34197447 986.15444598 C693.02368678 998.55696806 700.03753044 1011.36059298 707.08269712 1024.13100848 C707.53257994 1024.93989519 707.98246275 1025.74878191 708.44597837 1026.58218035 C733.9942304 1072.69069234 755.06947612 1124.8859493 766.26238462 1176.39663348 C767.09536839 1180.18869292 768.04615927 1183.93540967 769.02019712 1187.69350848 C770.71711533 1194.36531059 772.17675962 1201.07985383 773.58269712 1207.81850848 C773.77210874 1208.72479998 773.96152037 1209.63109148 774.15667173 1210.56484637 C774.81269141 1213.75087403 775.44850953 1216.94056036 776.08269712 1220.13100848 C776.30527189 1221.22652529 776.30527189 1221.22652529 776.53234312 1222.34417376 C779.17694631 1235.40109474 781.22019877 1248.46236297 782.83806822 1261.68496355 C783.20469236 1264.66905157 783.58633285 1267.6509472 783.96941587 1270.6329616 C787.25424627 1296.69198606 788.46544411 1322.6354487 788.40055296 1348.87497744 C788.39510637 1351.16923596 788.39274286 1353.46348413 788.39068052 1355.75774798 C788.35543343 1380.96704333 787.66422607 1406.0363065 785.08269712 1431.13100848 C785.01008665 1431.83741473 784.93747618 1432.54382098 784.86266539 1433.27163348 C783.92324862 1442.24541808 782.74375177 1451.17768263 781.39061949 1460.0984157 C781.06146317 1462.27117363 780.73781795 1464.44471786 780.41424009 1466.61831316 C777.46066201 1486.33588324 774.00790597 1505.79713916 769.08269712 1525.13100848 C768.72830667 1526.54236981 768.37432436 1527.95383366 768.0206854 1529.36538348 C748.85591027 1605.63618655 719.25663311 1677.75234039 670.3488104 1755.30532488 C668.89860252 1757.39646537 667.47250742 1759.5030586 666.04754087 1761.61147723 C644.05583152 1794.0888389 619.82877459 1824.68636035 592.88738462 1853.20864519 C591.05380882 1855.16178046 589.23830422 1857.13037887 587.42644712 1859.10366473 C579.33559498 1867.8867994 570.91250332 1876.16716417 562.12078306 1884.24575457 C560.03265323 1886.17729968 557.96537806 1888.12903008 555.90300962 1890.08803973 C549.36733001 1896.29109719 542.82031384 1902.35669561 535.76629087 1907.97475848 C533.32163129 1909.93902644 530.93498437 1911.958625 528.55877134 1914.00478777 C521.17292984 1920.35336791 513.50416469 1926.298235 505.71795103 1932.14614519 C503.67230575 1933.68691748 501.63453304 1935.23660007 499.59978697 1936.79165301 C489.75349564 1944.28578036 479.64911941 1951.30190651 469.33269712 1958.13100848 C468.54422392 1958.65458941 467.75575071 1959.17817034 466.94338438 1959.71761736 C455.18044886 1967.52349798 443.36301282 1975.15783668 431.08269712 1982.13100848 C429.62911802 1982.96052019 429.62911802 1982.96052019 428.14617369 1983.80678973 C420.82452866 1987.97501927 413.46728471 1992.07543662 406.08269712 1996.13100848 C405.25447447 1996.58717547 404.42625181 1997.04334246 403.5729315 1997.51333269 C380.56030939 2010.1198681 356.49238351 2020.56322282 332.08269712 2030.13100848 C331.12073423 2030.51176531 330.15877134 2030.89252215 329.16765806 2031.28481707 C316.00805475 2036.47049611 302.65364307 2041.00542386 289.20769712 2045.38100848 C288.43967771 2045.63172106 287.6716583 2045.88243365 286.88036558 2046.14074358 C275.69436352 2049.78160771 264.43913421 2053.06573923 253.08269712 2056.13100848 C251.91351744 2056.44972918 250.74433775 2056.76844988 249.53972837 2057.09682879 C233.50026538 2061.44004482 217.42513267 2065.12953698 201.08269712 2068.13100848 C199.96201841 2068.33967547 198.8413397 2068.54834246 197.68670103 2068.76333269 C156.24860143 2076.42030983 114.61254938 2080.34200021 72.46966001 2080.26137957 C69.15117271 2080.25601813 65.83282101 2080.2613667 62.51433775 2080.26772723 C42.21998799 2080.275797 22.02286269 2079.62093739 1.83269712 2077.50600848 C0.6182794 2077.3801285 0.6182794 2077.3801285 -0.62067202 2077.2517055 C-33.07104773 2073.83816055 -64.95113565 2067.96464078 -96.62335756 2060.18032488 C-100.4879044 2059.23120764 -104.36109316 2058.32305985 -108.23761538 2057.42397723 C-173.22548812 2042.112747 -235.97886969 2015.50176392 -295.35089663 1985.35366473 C-319.67549303 1973.01761941 -343.98419591 1961.49402079 -369.90070131 1952.82290301 C-372.05768512 1952.08284343 -374.1940141 1951.29701933 -376.33136538 1950.50210223 C-401.53698861 1941.20918623 -427.57806393 1935.66697049 -453.93634585 1930.86098894 C-457.31078168 1930.24548305 -460.67900196 1929.60143546 -464.04620913 1928.94741473 C-485.61816823 1924.85296021 -507.62497963 1922.89510585 -529.47980288 1920.94350848 C-530.6776642 1920.83595232 -530.6776642 1920.83595232 -531.89972475 1920.72622332 C-534.57095767 1920.50253205 -537.24285965 1920.31257975 -539.91730288 1920.13100848 C-541.76461001 1919.99964495 -541.76461001 1919.99964495 -543.64923647 1919.86562762 C-559.55333099 1918.83140894 -575.48734683 1918.93226239 -591.41730288 1918.94350848 C-592.1668965 1918.94362807 -592.91649012 1918.94374766 -593.6887987 1918.94387087 C-618.38951211 1918.94885227 -643.02680241 1919.30713658 -667.67938784 1920.97927508 C-669.84859856 1921.12635024 -672.01814385 1921.26721501 -674.18781069 1921.40737566 C-709.45463455 1923.73838878 -744.67104687 1928.54787736 -779.60480288 1933.81850848 C-780.78638979 1933.99623797 -781.9679767 1934.17396746 -783.18536928 1934.35708269 C-793.81195158 1936.01602119 -804.36261675 1938.07148148 -814.91730288 1940.13100848 C-815.8196567 1940.30667345 -816.72201052 1940.48233843 -817.65170839 1940.66332659 C-875.17745724 1951.8889449 -931.90649099 1965.83255448 -987.78671816 1983.53887591 C-990.81391375 1984.49430933 -993.83353226 1985.38012042 -996.91730288 1986.13100848 C-990.17361489 1971.70941961 -983.14266703 1957.44398764 -976.01340273 1943.20968279 C-974.82948468 1940.84212727 -973.64572771 1938.47449182 -972.46216598 1936.10675821 C-969.90466928 1930.9912362 -967.34571134 1925.87644738 -964.78575113 1920.76215777 C-960.97868469 1913.15637486 -957.17396775 1905.54941834 -953.36972217 1897.94222418 C-946.96491852 1885.13494324 -940.55831327 1872.32856436 -934.15072039 1859.5226787 C-925.39408723 1842.02206039 -916.64011031 1824.52011439 -907.88682504 1807.01782137 C-903.80062741 1798.84743173 -899.71430099 1790.67710651 -895.62794092 1782.50679812 C-895.2189526 1781.68906248 -894.80996427 1780.87132684 -894.38858236 1780.02881133 C-884.66762227 1760.59269442 -874.9454011 1741.15720837 -865.22296694 1721.72182879 C-864.79793141 1720.87217138 -864.37289589 1720.02251397 -863.93498049 1719.14710937 C-857.03919195 1705.36224762 -850.14332673 1691.57742422 -843.24745074 1677.7926062 C-836.78905798 1664.88231308 -830.33069271 1651.97200621 -823.872381 1639.06167254 C-823.44788439 1638.2130939 -823.02338777 1637.36451526 -822.58602762 1636.49022212 C-812.88348155 1617.09458891 -803.18130012 1597.69877341 -793.4802511 1578.30239138 C-793.07186593 1577.48586203 -792.66348076 1576.66933268 -792.24272028 1575.82806002 C-788.16416619 1567.67333799 -784.0856754 1559.51858429 -780.00727887 1551.36378345 C-771.26701922 1533.88756838 -762.52566497 1516.41190208 -753.78204676 1498.93736708 C-747.40644895 1486.19539049 -741.0322473 1473.45271631 -734.65946917 1460.70932925 C-730.8815544 1453.15490629 -727.10252058 1445.60104565 -723.32183577 1438.0480086 C-720.78761863 1432.98488179 -718.25489846 1427.92100793 -715.72332436 1422.85655909 C-714.28687598 1419.98302937 -712.84960862 1417.10991506 -711.41094361 1414.23749435 C-706.11274441 1403.65832083 -700.86024998 1393.06439667 -695.78898218 1382.37436709 C-688.46076407 1366.9503058 -680.77147418 1351.70469039 -673.12758176 1336.43550141 C-670.85470079 1331.89412866 -668.5841933 1327.35156938 -666.3133705 1322.80916724 C-662.34335611 1314.8686085 -658.37187389 1306.92878533 -654.3994005 1298.9894565 C-648.49198344 1287.18295303 -642.58690103 1275.37528298 -636.68229645 1263.56737274 C-627.04862903 1244.30229562 -617.41332916 1225.03803536 -607.77696214 1205.77430846 C-597.62791313 1185.48569608 -587.47983279 1165.19659967 -577.33316591 1144.90679583 C-577.02673837 1144.29404789 -576.72031082 1143.68129995 -576.40459759 1143.04998389 C-572.98015281 1136.20228556 -569.55573976 1129.35457137 -566.1313397 1122.50685069 C-559.79893966 1109.84404957 -553.46640628 1097.18131513 -547.13384035 1084.51859698 C-546.81705747 1083.88515149 -546.50027458 1083.251706 -546.17389222 1082.59906519 C-531.11443022 1052.48587573 -516.05375324 1022.37329399 -500.99279345 992.26085362 C-499.99419405 990.26428317 -498.99559525 988.2677124 -497.9969966 986.27114157 C-487.63563284 965.5549178 -477.27419595 944.83873061 -466.91274768 924.12254912 C-456.8880428 904.07963565 -446.8633586 884.03671185 -436.8387366 863.99375693 C-435.84042142 861.99775321 -434.84210563 860.00174979 -433.84378977 858.00574641 C-418.79549372 827.91861495 -403.74756255 797.83130108 -388.7007654 767.74341998 C-388.38421806 767.11044594 -388.06767072 766.47747191 -387.74153103 765.82531685 C-381.41591791 753.17649744 -375.09035776 740.52765154 -368.76490979 727.87874953 C-365.34377624 721.03756185 -361.92262017 714.19638542 -358.50143984 707.35522112 C-358.0423832 706.43726755 -358.0423832 706.43726755 -357.5740527 705.50076947 C-347.43263092 685.22149039 -337.28960979 664.94301171 -327.14582139 644.66491634 C-317.25973692 624.9019679 -307.37505166 605.13832006 -297.49178556 585.37396201 C-291.62538092 573.64256415 -285.75784777 561.91173233 -279.88868782 550.18171269 C-275.96242569 542.33446699 -272.03763457 534.48648671 -268.11400661 526.63792359 C-265.88251631 522.17430553 -263.65041247 517.71099744 -261.41649356 513.24859425 C-253.70344377 497.84038513 -245.99423805 482.43705138 -238.60604981 466.86957466 C-234.1637364 457.51224486 -229.54472548 448.24633821 -224.90750673 438.98443255 C-223.95397878 437.07622022 -223.00062466 435.16792101 -222.04742613 433.2595441 C-219.46502866 428.09062808 -216.8801902 422.92293631 -214.29489544 417.75546893 C-211.49332668 412.15461482 -208.6940808 406.55259987 -205.8945215 400.95074114 C-200.74228647 390.64210208 -195.58825193 380.33436442 -190.43324969 370.02710898 C-185.67572432 360.51458271 -180.91895147 351.00168062 -176.16291216 341.48841128 C-175.84634001 340.85519059 -175.52976786 340.2219699 -175.20360261 339.56956071 C-173.91836398 336.99877208 -172.63312816 334.42798204 -171.34789698 331.85718969 C-159.32567767 307.80970105 -147.30113801 283.76337333 -135.27554061 259.71757385 C-124.59101253 238.35327478 -113.90856679 216.98793572 -103.22784975 195.62173113 C-91.21097598 171.58263414 -79.1928157 147.54418107 -67.17256442 123.50677273 C-65.89288572 120.94773603 -64.61321016 118.38869777 -63.33353594 115.82965884 C-63.01847341 115.19961285 -62.70341087 114.56956686 -62.37880099 113.92042857 C-57.61727647 104.39851791 -52.85674054 94.87611345 -48.09668139 85.35347018 C-42.69379112 74.54483789 -37.28944533 63.73693508 -31.88327689 52.92994194 C-29.12365499 47.41333572 -26.36468776 41.89640459 -23.60743693 36.37861285 C-21.08802799 31.33683394 -18.56680148 26.29596851 -16.0440679 21.25585236 C-15.12780336 19.42444814 -14.21222596 17.59269997 -13.29737438 15.76058953 C-12.06207869 13.28699498 -10.82437122 10.81462283 -9.58600214 8.34256586 C-9.04356649 7.25418281 -9.04356649 7.25418281 -8.49017254 6.14381221 C-5.41603021 0.01901432 -5.41603021 0.01901432 0 0 Z " fill="#000000" transform="translate(1645.917302876711,584.8689915239811)"/>
<path d="M0 0 C0.99777466 0.00093658 1.99554932 0.00187317 3.02355957 0.00283813 C17.77162765 0.03281628 32.35856491 0.2605646 47 2.1875 C48.21381348 2.34347656 49.42762695 2.49945312 50.67822266 2.66015625 C79.81698022 6.46838142 108.06372675 12.59951438 135.9140625 22.13378906 C138.706991 23.08745041 141.50712716 24.01345102 144.3125 24.9296875 C189.45443238 39.89374077 231.97185632 64.47407953 269 94.1875 C270.02996094 95.00605469 271.05992187 95.82460937 272.12109375 96.66796875 C277.37234236 100.89955743 282.44069675 105.30141191 287.41796875 109.8515625 C288.82870198 111.12783856 290.24579877 112.39768296 291.69165039 113.6340332 C297.25126975 118.39810678 302.45523638 123.48955434 307.6184082 128.67553711 C309.06025221 130.12274385 310.50737116 131.56452026 311.95507812 133.00585938 C317.18269653 138.22944922 322.21604461 143.55435904 327 149.1875 C327.845625 150.15171875 328.69125 151.1159375 329.5625 152.109375 C362.2181377 189.99828797 388.80423199 234.28613518 405.95556641 281.32421875 C406.6617032 283.26007015 407.37780732 285.19231027 408.10302734 287.12109375 C417.87857852 313.16665063 424.91780216 340.65724057 429 368.1875 C429.14131348 369.13898926 429.28262695 370.09047852 429.42822266 371.07080078 C429.86324256 374.06613985 430.28060789 377.06321566 430.6875 380.0625 C430.86708252 381.38084839 430.86708252 381.38084839 431.05029297 382.72583008 C433.11375504 398.92655295 433.18636563 415.12221241 433.18530273 431.42919922 C433.18747932 435.15213637 433.20566778 438.87477159 433.22460938 442.59765625 C433.27454174 463.28998756 432.05609325 483.68891773 428.75 504.125 C428.6442868 504.78940094 428.53857361 505.45380188 428.42965698 506.13833618 C426.31836732 519.33218969 423.44469016 532.27833825 420 545.1875 C419.658479 546.49291748 419.658479 546.49291748 419.31005859 547.82470703 C412.54083007 573.5026145 403.31911881 598.18302762 392 622.1875 C391.58814453 623.07163574 391.17628906 623.95577148 390.75195312 624.86669922 C373.95915261 660.69460015 351.01780111 694.41898576 324.3359375 723.60546875 C323.07459517 724.99969497 321.81907332 726.39981127 320.59960938 727.83081055 C315.47729223 733.82214778 309.96555524 739.40807669 304.39501953 744.9777832 C302.76172552 746.61325882 301.1366153 748.25657708 299.51171875 749.90039062 C292.98420426 756.46246677 286.25316092 762.42662692 279 768.1875 C277.90991991 769.11058078 276.82529516 770.04020653 275.75 770.98046875 C244.53162133 798.16351722 207.69961216 819.36882239 170 836.1875 C169.37657715 836.46867676 168.7531543 836.74985352 168.11083984 837.03955078 C148.34418472 845.86294215 127.12398466 852.64459542 106.08984375 857.68603516 C104.00400773 858.18653833 101.92392688 858.70699674 99.84375 859.23046875 C88.32898442 862.08243983 76.68721383 864.17842696 65 866.1875 C63.82824219 866.39375 62.65648437 866.6 61.44921875 866.8125 C41.96565015 870.04712618 22.46005952 870.5376456 2.75561523 870.50317383 C-0.11075603 870.49855835 -2.97670129 870.50542276 -5.84301758 870.52368164 C-32.95090114 870.69463078 -59.36002439 868.49963799 -86 863.1875 C-87.03382813 862.98286133 -88.06765625 862.77822266 -89.1328125 862.56738281 C-153.67190987 849.5623659 -215.08365348 821.80013188 -267 781.1875 C-268.22783203 780.23037109 -268.22783203 780.23037109 -269.48046875 779.25390625 C-284.47930915 767.40267624 -298.58651675 754.67412254 -312.15093994 741.21179199 C-313.15816232 740.21261139 -314.16686031 739.21491559 -315.17718506 738.21887207 C-321.117904 732.35325171 -326.67795089 726.32902934 -331.89086914 719.79321289 C-333.89411883 717.31831024 -335.97187731 714.94898501 -338.109375 712.58984375 C-342.08426989 708.16182656 -345.69969472 703.52240127 -349.25 698.75 C-349.89622314 697.88310547 -350.54244629 697.01621094 -351.20825195 696.12304688 C-366.64310138 675.2518926 -379.91541566 653.13183519 -391.59912109 629.96337891 C-392.48819812 628.20164907 -393.38362171 626.44309639 -394.28759766 624.68896484 C-407.52678808 598.9399726 -416.67103201 571.12581409 -424 543.1875 C-424.4840973 541.39836234 -424.96845504 539.60929512 -425.453125 537.8203125 C-428.7480595 525.41031751 -431.00010806 512.86411563 -433 500.1875 C-433.20496094 498.93195313 -433.40992188 497.67640625 -433.62109375 496.3828125 C-434.17588133 492.65842458 -434.62022246 488.93289227 -435 485.1875 C-435.09023437 484.31351563 -435.18046875 483.43953125 -435.2734375 482.5390625 C-438.35886476 451.10106037 -438.59135536 418.58414833 -435 387.1875 C-434.89816406 386.27597168 -434.79632812 385.36444336 -434.69140625 384.42529297 C-425.17471261 301.96196772 -391.64017663 220.38917623 -336.85888672 157.48583984 C-334.99898444 155.34933631 -333.1614816 153.19701333 -331.34448242 151.02392578 C-324.49613243 142.86318354 -317.29485437 135.16809877 -309.73608398 127.6628418 C-307.92778392 125.86534195 -306.13054023 124.05727684 -304.33398438 122.24804688 C-298.25636906 116.16352972 -292.10421576 110.42117775 -285.3659668 105.06762695 C-283.35824128 103.47217816 -281.41514685 101.84040708 -279.49609375 100.140625 C-218.0918201 45.78403251 -135.77682981 12.17496933 -54.875 2.9375 C-54.15018433 2.85441589 -53.42536865 2.77133179 -52.67858887 2.68572998 C-35.11237989 0.69993688 -17.66999204 -0.02149858 0 0 Z " fill="#FEFEFE" transform="translate(1711,1504.8125)"/>
<path d="M0 0 C2.47130649 2.23204207 4.90213888 4.49413463 7.29443359 6.81054688 C8.35088772 7.83150414 9.41420667 8.8453877 10.48291016 9.85351562 C23.79849448 22.42204574 34.65188997 36.44165094 43.8203125 52.28515625 C44.80064453 53.89197266 44.80064453 53.89197266 45.80078125 55.53125 C63.32870985 84.85747484 72.00912127 119.40256087 72.00561523 153.41113281 C72.00778195 155.75214382 72.02593206 158.09266694 72.04492188 160.43359375 C72.08410491 170.85813451 71.29825658 180.96865975 69.8203125 191.28515625 C69.69019775 192.20474121 69.56008301 193.12432617 69.42602539 194.07177734 C61.92740894 242.74915042 33.28019356 288.95708515 -5.1796875 319.28515625 C-6.695625 320.50912109 -6.695625 320.50912109 -8.2421875 321.7578125 C-16.12809704 328.05458808 -24.40238597 333.32249133 -33.1796875 338.28515625 C-33.77475098 338.62788574 -34.36981445 338.97061523 -34.98291016 339.32373047 C-57.18172676 352.05316442 -82.65373101 360.84783911 -108.1796875 363.28515625 C-108.82682709 363.36471054 -109.47396667 363.44426483 -110.14071655 363.52622986 C-115.38296743 364.16447253 -120.53019421 364.44512847 -125.80859375 364.453125 C-126.99774635 364.4581176 -126.99774635 364.4581176 -128.21092224 364.46321106 C-129.87897163 364.46823737 -131.54703093 364.47062073 -133.21508789 364.47045898 C-135.71192892 364.47262994 -138.20831581 364.49078915 -140.70507812 364.50976562 C-153.94698616 364.55673873 -166.91889957 363.56314819 -179.8671875 360.59765625 C-180.6008252 360.43031982 -181.33446289 360.2629834 -182.09033203 360.09057617 C-223.68503604 350.16526134 -264.9798154 326.75307499 -292.1796875 293.28515625 C-293.05555532 292.25614062 -293.93190214 291.22753262 -294.80859375 290.19921875 C-330.27838545 247.95303815 -345.80342846 193.77247573 -341.95703125 139.12158203 C-337.11277638 84.73458677 -310.09461977 33.38693146 -268.1796875 -1.71484375 C-198.54081065 -58.52898575 -96.72861235 -67.25862427 0 0 Z " fill="#FF6D00" transform="translate(1844.1796875,1782.71484375)"/>
</svg>
