<?xml version="1.0" encoding="UTF-8"?>
<svg version="1.1" xmlns="http://www.w3.org/2000/svg" width="2000" height="2000">
<path d="M0 0 C660 0 1320 0 2000 0 C2000 660 2000 1320 2000 2000 C1340 2000 680 2000 0 2000 C0 1340 0 680 0 0 Z " fill="#111116" transform="translate(0,0)"/>
<path d="M0 0 C3.27730329 1.09243443 3.62578016 1.5007569 5.4609375 4.21875 C5.9257251 4.89510498 6.3905127 5.57145996 6.86938477 6.26831055 C7.61466431 7.37299683 7.61466431 7.37299683 8.375 8.5 C14.629456 17.56516684 21.23773872 26.30962949 28 35 C28.70938721 35.91410645 28.70938721 35.91410645 29.43310547 36.84667969 C40.1264947 50.61104936 51.12300044 64.11140828 62.52929688 77.29101562 C63.99364888 78.99261988 65.44403795 80.70515396 66.890625 82.421875 C77.65936626 95.1723826 89.0732588 107.32582508 101 119 C98.83220601 126.29875962 95.71985169 132.85006352 92.30392456 139.64334106 C85.42330894 153.39575651 79.60787335 167.30586204 75 182 C74.73364746 182.84755859 74.46729492 183.69511719 74.19287109 184.56835938 C64.794415 215.49748738 62.87612606 252.76664548 72 284 C72.43119141 285.5159375 72.43119141 285.5159375 72.87109375 287.0625 C79.24427501 308.64140419 88.33838726 329.00418359 102 347 C102.64324219 347.85335938 103.28648437 348.70671875 103.94921875 349.5859375 C120.4611036 370.82028841 140.58168889 387.8573744 164 401 C164.63953613 401.36689941 165.27907227 401.73379883 165.93798828 402.11181641 C182.22869259 411.41675695 199.80641874 418.42449863 218 423 C219.76150391 423.48533203 219.76150391 423.48533203 221.55859375 423.98046875 C245.44960361 430.36281632 269.40767523 431.98969407 294 433 C293.4351019 440.56832268 292.62994377 448.05038142 291.5625 455.5625 C290.41058643 464.08933275 289.53289105 472.60872538 288.875 481.1875 C288.77646729 482.30423096 288.67793457 483.42096191 288.57641602 484.5715332 C288.09636427 490.62156538 288.03279568 496.36031726 288.5703125 502.41015625 C289.58276657 516.5817034 289.58276657 516.5817034 287 523 C281.06309781 529.61175945 272.55100887 532.8998167 264.54931641 536.38623047 C259.16112123 538.83608396 254.1807037 541.87372218 249.125 544.9375 C247.15088327 546.09662344 245.17427689 547.25151625 243.1953125 548.40234375 C242.19274414 548.98612793 241.19017578 549.56991211 240.15722656 550.17138672 C233.85930768 553.81903692 227.53295929 557.41705536 221.20953369 561.02023315 C213.11292157 565.63484029 205.04211199 570.29084886 197 575 C187.77199471 580.4035646 178.5000533 585.72652361 169.20898438 591.02050781 C160.14069356 596.18893804 151.11161393 601.42115019 142.10449219 606.69555664 C133.03596608 611.99760949 123.91755202 617.21032167 114.7890625 622.40820312 C107.49933139 626.56095978 100.23819609 630.75807662 93 635 C96.17559667 637.64609475 99.27842048 639.84434081 102.9296875 641.77734375 C103.8777124 642.28386475 104.8257373 642.79038574 105.80249023 643.31225586 C107.32338257 644.11675171 107.32338257 644.11675171 108.875 644.9375 C117.1155096 649.34771137 125.31131061 653.81983249 133.4375 658.4375 C134.37722656 658.97117187 135.31695313 659.50484375 136.28515625 660.0546875 C138.20854605 661.14704747 140.13188555 662.239496 142.05517578 663.33203125 C147.15160521 666.21868403 152.26329975 669.07800223 157.375 671.9375 C158.41245361 672.51806152 159.44990723 673.09862305 160.51879883 673.69677734 C163.67897902 675.46491223 166.83944044 677.23254334 170 679 C183.07949989 686.31435327 196.15346432 693.63719116 209.18701172 701.03320312 C214.36414357 703.96522712 219.55756255 706.86395805 224.7734375 709.7265625 C256.49245019 727.14523691 284.86822135 745.67089496 307 775 C307.77859375 775.98484375 308.5571875 776.9696875 309.359375 777.984375 C325.61278053 798.5875075 339.29875576 821.07896892 352 844 C352.85634033 845.54010742 352.85634033 845.54010742 353.72998047 847.11132812 C393.70964858 919.35929125 421.80777649 998.48832568 451.01171875 1088.75 C452.2882087 1092.94778514 453.61271402 1097.12974874 454.9375 1101.3125 C457.39144637 1109.07062859 459.83960735 1116.83034466 462.25341797 1124.60107422 C462.80032655 1126.35840703 463.34909257 1128.11516208 463.89892578 1129.87158203 C467.82200776 1142.41097958 471.60354776 1154.9597301 474.99194336 1167.65478516 C476.20012643 1172.15654247 477.46880092 1176.59466493 479 1181 C480.84612218 1186.31138431 482.3010167 1191.69536671 483.75 1197.125 C486.33233465 1206.78490641 489.20868435 1216.33504302 492.17651367 1225.8828125 C494.18091808 1232.33239473 496.12666191 1238.78566584 497.94921875 1245.2890625 C498.81053147 1248.33087324 499.69043235 1251.36544158 500.58203125 1254.3984375 C503.54854189 1264.49114765 506.45821979 1274.59028287 509.1875 1284.75 C510.93900914 1291.25910204 512.80019969 1297.67624397 515.01171875 1304.046875 C516.46673669 1308.39467565 517.72140484 1312.79918154 518.99316406 1317.203125 C520.15814742 1321.21166989 521.37163537 1325.19864205 522.65234375 1329.171875 C522.92836426 1330.029021 523.20438477 1330.88616699 523.48876953 1331.76928711 C524.02769792 1333.43319256 524.57145446 1335.09554387 525.12060547 1336.75610352 C525.36568848 1337.51334717 525.61077148 1338.27059082 525.86328125 1339.05078125 C526.19259644 1340.05105347 526.19259644 1340.05105347 526.52856445 1341.0715332 C527 1343 527 1343 527 1347 C527.66 1347 528.32 1347 529 1347 C529.061875 1345.845 529.12375 1344.69 529.1875 1343.5 C530.15646746 1334.79294027 533.49621513 1326.42029661 536.30078125 1318.16015625 C538.75204303 1310.92779564 540.92866881 1303.70720525 542.84765625 1296.31640625 C546.41623092 1282.75582249 550.57340227 1269.34027665 554.6875 1255.9375 C556.91818659 1248.66668718 559.00449078 1241.39203335 560.91796875 1234.03125 C563.1206508 1225.69237189 565.64014965 1217.4366358 568.07226562 1209.16259766 C568.98500783 1206.05110752 569.89208313 1202.93802928 570.796875 1199.82421875 C574.23109241 1188.00608083 577.716933 1176.20514439 581.27050781 1164.42236328 C582.24988395 1161.17023142 583.2230454 1157.91625184 584.1965332 1154.66235352 C585.46056985 1150.44042946 586.72988116 1146.22009764 588 1142 C588.26925293 1141.10442383 588.53850586 1140.20884766 588.81591797 1139.28613281 C593.17085902 1124.82050843 597.69029791 1110.41359792 602.34051514 1096.0402832 C603.0604264 1093.81305565 603.77858778 1091.58526813 604.49658203 1089.35742188 C626.45783474 1021.24638836 650.08660753 953.94162964 680.54736328 889.09326172 C681.50220976 887.0600004 682.45380646 885.02520919 683.40185547 882.98876953 C690.06554079 868.67970582 697.23516095 854.74255149 705 841 C705.53995605 840.03980957 706.07991211 839.07961914 706.63623047 838.09033203 C717.80753512 818.30815314 729.84165723 798.80815777 744 781 C744.47469727 780.39816895 744.94939453 779.79633789 745.43847656 779.17626953 C752.90478714 769.73303603 760.69673551 760.71419752 769 752 C769.64839844 751.28714844 770.29679687 750.57429688 770.96484375 749.83984375 C787.58795455 732.12550029 810.96271321 720.46795787 832.09765625 709.1796875 C837.59957777 706.23398826 843.02928546 703.17630484 848.4375 700.0625 C859.1798415 693.88126109 869.99041502 687.8260525 880.81054688 681.78222656 C886.04251954 678.8586656 891.27110728 675.92906479 896.5 673 C898.58331668 671.83330359 900.66665002 670.66663694 902.75 669.5 C904.296875 668.63375 904.296875 668.63375 905.875 667.75 C915.25 662.5 915.25 662.5 918.38037109 660.74731445 C920.44616791 659.59025483 922.5116028 658.43254878 924.57666016 657.27416992 C929.46171016 654.53497258 934.35020266 651.8026086 939.25177002 649.0930481 C941.00140595 648.12546513 942.7497353 647.15552075 944.49804688 646.18554688 C946.70279453 644.96267064 948.9097355 643.7437381 951.11914062 642.52929688 C952.10849609 641.97951172 953.09785156 641.42972656 954.1171875 640.86328125 C954.98972168 640.38157471 955.86225586 639.89986816 956.76123047 639.40356445 C958.83257837 638.10496259 960.36699254 636.80551765 962 635 C961.33806641 634.6189209 960.67613281 634.2378418 959.99414062 633.84521484 C956.82902985 632.02249878 953.66435373 630.19902992 950.5 628.375 C949.91377869 628.03709442 949.32755737 627.69918884 948.72357178 627.3510437 C940.50853204 622.6144932 932.3095522 617.85159901 924.125 613.0625 C914.8544305 607.64029482 905.54063185 602.29675922 896.20953369 596.97976685 C887.13221364 591.80621213 878.09428467 586.56857846 869.078125 581.2890625 C861.41426026 576.80833735 853.71314165 572.39505776 846 568 C836.28759711 562.46517957 826.60857219 556.87660026 816.95947266 551.23193359 C809.4456785 546.8379239 801.91498774 542.47390475 794.375 538.125 C793.34487793 537.53066162 792.31475586 536.93632324 791.25341797 536.32397461 C790.24939941 535.74526611 789.24538086 535.16655762 788.2109375 534.5703125 C787.21731201 533.97065674 786.22368652 533.37100098 785.19995117 532.75317383 C782.79519207 531.435666 780.71141029 530.48595465 778.16918945 529.56518555 C774.2079506 528.00112799 770.65473471 526.44182339 768 523 C765.82879415 516.89850785 766.24819032 510.17763242 766.37445068 503.79025269 C766.4815071 498.30959639 766.36796489 492.83205958 766.28515625 487.3515625 C766.26932495 485.68464607 766.26932495 485.68464607 766.25317383 483.98405457 C766.09986805 472.69461071 764.87257367 461.61737772 763.375 450.4375 C763.25768524 449.54298126 763.14037048 448.64846252 763.01950073 447.72683716 C762.37399662 442.81377351 761.70184896 437.90532264 761 433 C761.69335449 432.98018066 762.38670898 432.96036133 763.10107422 432.93994141 C789.65868263 432.14527665 815.49299037 429.87444002 841 422 C844.41770589 421.06824133 847.83618821 420.13992461 851.2578125 419.22265625 C871.56989153 412.5862463 891.64618671 402.44655341 909 390 C909.58668457 389.58008789 910.17336914 389.16017578 910.77783203 388.72753906 C918.48671124 383.14050978 925.6401094 376.98872127 932.51611328 370.41650391 C933.50417775 369.47330712 934.49735893 368.5354411 935.49560547 367.60302734 C965.33174688 339.6892927 986.56551641 296.48723877 988.20263672 255.52685547 C988.78734584 237.04061153 989.13805911 218.11649858 985 200 C984.77425293 199.00323242 984.54850586 198.00646484 984.31591797 196.97949219 C979.97216161 178.41140407 973.42540776 161.29367398 965.27734375 144.1015625 C964.95573776 143.42097778 964.63413177 142.74039307 964.30278015 142.03918457 C962.69897468 138.64945459 961.08073088 135.26819387 959.43334961 131.89941406 C958.83811971 130.65962962 958.24313726 129.41972633 957.6484375 128.1796875 C957.11395996 127.08382324 956.57948242 125.98795898 956.02880859 124.85888672 C954.96401807 121.90001225 954.72655399 120.82212574 956 118 C958.0390625 115.703125 958.0390625 115.703125 960.625 113.25 C964.25754703 109.72504604 967.67929613 106.16119602 970.96484375 102.31640625 C973.14827796 99.83123066 975.39946232 97.42099342 977.66381836 95.00976562 C982.96644693 89.36290877 988.04132818 83.63212587 992.88671875 77.58203125 C995.03619026 74.95578232 997.27460088 72.44366547 999.5625 69.9375 C1003.93661948 65.12521311 1007.99242507 60.11916505 1012 55 C1012.80953125 53.97390625 1013.6190625 52.9478125 1014.453125 51.890625 C1016.78998785 48.92781674 1019.11781546 45.95802579 1021.44335938 42.98632812 C1023.07863669 40.89965682 1024.71906903 38.81709493 1026.359375 36.734375 C1032.44395439 28.98595704 1038.41343099 21.17079225 1044.1875 13.1875 C1044.72810059 12.44081055 1045.26870117 11.69412109 1045.82568359 10.92480469 C1048.37999598 7.36523626 1050.82273521 3.80834287 1053 0 C1057.43246328 1.47748776 1058.39517911 4.9868094 1060.39453125 8.94140625 C1060.81862274 9.76321381 1061.24271423 10.58502136 1061.67965698 11.43173218 C1063.06922758 14.13606323 1064.44205228 16.84843308 1065.8125 19.5625 C1066.5182164 20.95047287 1066.5182164 20.95047287 1067.2381897 22.3664856 C1075.83928924 39.30106078 1083.79657735 56.42731926 1091 74 C1091.44843262 75.09135254 1091.89686523 76.18270508 1092.35888672 77.30712891 C1102.09800026 101.25968637 1111.27350209 126.25235951 1116.9375 151.5234375 C1117.77031215 155.22616868 1118.82652721 158.83845626 1119.90625 162.4765625 C1122.24073899 170.56621531 1123.91991004 178.73412045 1125.5 187 C1125.64996429 187.77735504 1125.79992859 188.55471008 1125.95443726 189.35562134 C1130.30568107 212.01699142 1133.26925157 234.7928795 1134.78318024 257.82466412 C1134.9267069 259.92661906 1135.08234951 262.02778485 1135.25061798 264.12790394 C1136.07673378 274.98611823 1136.16572548 285.80640583 1136.18945312 296.69213867 C1136.19741693 298.73850161 1136.20580649 300.78486293 1136.21458435 302.83122253 C1136.2325497 307.22284142 1136.24760168 311.61445692 1136.26036072 316.00609398 C1136.28088952 323.03902233 1136.30852075 330.07191276 1136.33703613 337.10481262 C1136.39190268 350.86814038 1136.43988987 364.63148782 1136.48697662 378.39484406 C1136.71057134 457.58298486 1136.71057134 457.58298486 1137.41618538 536.76780152 C1137.44451715 539.05683464 1137.47120092 541.34588137 1137.49745178 543.63493919 C1137.93980779 581.51310284 1139.27474331 619.50753935 1143.67675781 657.15380859 C1144.07405957 660.65210455 1144.40034325 664.15415202 1144.71557617 667.66064453 C1145.11623944 672.10981395 1145.55626083 676.55494564 1146 681 C1146.12455566 682.24861816 1146.24911133 683.49723633 1146.37744141 684.78369141 C1148.75284912 708.33664427 1152.10949488 731.65257985 1156 755 C1156.16459717 756.0103833 1156.32919434 757.0207666 1156.4987793 758.06176758 C1162.6942066 795.93738204 1170.54050737 833.51214259 1179.8125 870.75 C1180.08693436 871.85515457 1180.08693436 871.85515457 1180.36691284 872.9826355 C1182.63580282 882.08041551 1185.18327348 891.05463336 1188 900 C1188.63493239 902.18463775 1189.26234019 904.37151182 1189.875 906.5625 C1194.79239565 923.88600657 1200.18630603 941.03982579 1205.875 958.125 C1206.24205048 959.22750092 1206.60910095 960.33000183 1206.98727417 961.46591187 C1221.97691404 1006.34862162 1239.51577877 1050.33407033 1260 1093 C1260.32286987 1093.6728302 1260.64573975 1094.3456604 1260.97839355 1095.03887939 C1268.20324128 1110.08383068 1275.50475437 1125.08773512 1283 1140 C1280.121582 1138.6685435 1277.80803749 1137.16701678 1275.3828125 1135.12890625 C1274.70089844 1134.56042969 1274.01898437 1133.99195313 1273.31640625 1133.40625 C1272.23166016 1132.49359375 1272.23166016 1132.49359375 1271.125 1131.5625 C1265.80644568 1127.1318815 1260.46707174 1122.74621497 1255 1118.5 C1249.01229566 1113.84087707 1243.15904219 1109.03065569 1237.31640625 1104.19140625 C1232.92578528 1100.56299073 1228.49484293 1096.99829576 1224 1093.5 C1218.75885756 1089.42086604 1213.61479473 1085.23638682 1208.5 1081 C1202.69185874 1076.1895001 1196.82778059 1071.4670584 1190.88232422 1066.82763672 C1186.53071727 1063.42884489 1182.24454466 1059.95747619 1177.98046875 1056.44921875 C1174.30966768 1053.43271512 1170.62484909 1050.43373843 1166.9375 1047.4375 C1166.24285645 1046.87305176 1165.54821289 1046.30860352 1164.83251953 1045.72705078 C1160.46193182 1042.17886874 1156.07428979 1038.6531672 1151.671875 1035.14453125 C1148.87710764 1032.90136271 1146.09824944 1030.6394877 1143.32055664 1028.37524414 C1137.60750517 1023.71844367 1131.87576732 1019.09372526 1126.0625 1014.5625 C1120.06160708 1009.88280195 1114.19036601 1005.05641518 1108.32983398 1000.20263672 C1103.2519795 996.0063582 1098.11298201 991.89998801 1092.91308594 987.85620117 C1088.22196826 984.20214677 1083.65237867 980.41939086 1079.109375 976.58203125 C1077.17278646 974.8 1077.17278646 974.8 1075 975 C1073.82149109 976.51278965 1073.82149109 976.51278965 1072.70703125 978.53125 C1072.02084717 979.69877808 1072.02084717 979.69877808 1071.32080078 980.88989258 C1070.82306152 981.75122803 1070.32532227 982.61256348 1069.8125 983.5 C1068.7247291 985.34887736 1067.63479113 987.19648103 1066.54296875 989.04296875 C1065.96595215 990.01927246 1065.38893555 990.99557617 1064.79443359 992.00146484 C1061.8121268 996.98496036 1058.71791088 1001.89716012 1055.625 1006.8125 C1050.6494327 1014.73589221 1045.72764876 1022.68821181 1040.875 1030.6875 C1035.96622282 1038.77931239 1031.01724589 1046.84424733 1026.02807617 1054.88671875 C1021.73312716 1061.81126787 1017.45662823 1068.74700363 1013.1875 1075.6875 C1012.51823486 1076.77546875 1011.84896973 1077.8634375 1011.15942383 1078.984375 C1009.10605954 1082.32277958 1007.05297802 1085.66135787 1005 1089 C996.99175873 1102.0233502 988.97949018 1115.04395642 980.92626953 1128.03955078 C973.9243722 1139.34337952 966.96491004 1150.67336041 960 1162 C955.95262027 1168.58202492 951.90455694 1175.16361808 947.8515625 1181.7421875 C945.29719536 1185.88868665 942.7511664 1190.04013871 940.2109375 1194.1953125 C939.03653343 1196.10942108 937.86205796 1198.02348585 936.6875 1199.9375 C936.15423096 1200.8138208 935.62096191 1201.6901416 935.0715332 1202.59301758 C934.57741943 1203.39634521 934.08330566 1204.19967285 933.57421875 1205.02734375 C933.14713623 1205.72593506 932.72005371 1206.42452637 932.2800293 1207.14428711 C931.00615265 1208.99108024 929.6357959 1210.47097073 928 1212 C927.29875 1211.28714844 926.5975 1210.57429688 925.875 1209.83984375 C921.06554711 1204.97590246 916.2351097 1200.24957208 911.02734375 1195.80859375 C907.6839383 1192.8259411 904.5892363 1189.59643308 901.44140625 1186.41015625 C898.72797273 1183.73145468 895.89222977 1181.25391882 892.99609375 1178.77734375 C889.93333273 1176.05022777 887.09776507 1173.10595363 884.21875 1170.1875 C882.20569368 1168.20279658 880.14553597 1166.33903084 878 1164.5 C874.20641267 1161.24835372 870.72607353 1157.74286906 867.21875 1154.1875 C865.20569368 1152.20279658 863.14553597 1150.33903084 861 1148.5 C857.20641267 1145.24835372 853.72607353 1141.74286906 850.21875 1138.1875 C848.20569368 1136.20279658 846.14553597 1134.33903084 844 1132.5 C841.02859791 1129.95308392 838.2485599 1127.28621141 835.5 1124.5 C832.77170593 1121.73439592 830.01483166 1119.08712969 827.0625 1116.5625 C822.96941697 1113.0553056 819.22775296 1109.24274842 815.44140625 1105.41015625 C812.72797273 1102.73145468 809.89222977 1100.25391882 806.99609375 1097.77734375 C803.9347036 1095.05144841 801.10034836 1092.10858642 798.22265625 1089.19140625 C795.57606275 1086.5820232 792.79640012 1084.17174861 789.97265625 1081.7578125 C787.18769754 1079.27616612 784.62163254 1076.59918793 782.0546875 1073.89453125 C779.5607784 1071.5950143 776.85442605 1069.82343647 774 1068 C773.48167603 1068.85658203 773.48167603 1068.85658203 772.95288086 1069.73046875 C766.20849358 1080.8667302 759.41979129 1091.97172446 752.5 1103 C746.96987194 1111.81514006 741.52186225 1120.6760265 736.12451172 1129.57299805 C731.79983671 1136.69817718 727.42890147 1143.79328577 723.03466797 1150.87573242 C718.67309985 1157.90693767 714.33362863 1164.95154412 710 1172 C705.17854071 1179.84073373 700.34896133 1187.67624358 695.5 1195.5 C688.65782978 1206.5411367 681.8524799 1217.60483271 675.04833984 1228.66943359 C671.03617472 1235.19314713 667.0215248 1241.71533179 663.00732422 1248.23779297 C659.63555555 1253.71660767 656.26442116 1259.19581073 652.89453125 1264.67578125 C646.25381323 1275.47328459 639.60342091 1286.26453858 632.92626953 1297.03955078 C626.61069284 1307.23538685 620.33079741 1317.45317042 614.04833984 1327.66943359 C610.70006312 1333.11367568 607.34995241 1338.5567889 604 1344 C602.66665758 1346.16666108 601.33332426 1348.33332775 600 1350.5 C597.33333333 1354.83333333 594.66666667 1359.16666667 592 1363.5 C591.3397583 1364.57290283 590.6795166 1365.64580566 589.99926758 1366.7512207 C588.66841199 1368.91384072 587.33752017 1371.07643845 586.0065918 1373.23901367 C582.63504875 1378.71741008 579.26417261 1384.19621492 575.89453125 1389.67578125 C569.77554334 1399.62497534 563.65250328 1409.57148864 557.5 1419.5 C552.86219337 1426.98499376 548.2347672 1434.47633417 543.61767578 1441.97412109 C542.5970434 1443.63140894 541.57587482 1445.28836654 540.5546875 1446.9453125 C536.66077968 1453.27192542 532.80568266 1459.61991106 529 1466 C525.06568284 1464.68856095 524.60911484 1463.1567343 522.515625 1459.62109375 C522.18341446 1459.06641418 521.85120392 1458.51173462 521.50892639 1457.94024658 C520.79100859 1456.73956534 520.07705026 1455.53650976 519.36660767 1454.33139038 C517.85444882 1451.76660135 516.32353968 1449.21320543 514.79316711 1446.65925598 C514.00814027 1445.349086 513.2240399 1444.03836048 512.44084167 1442.72709656 C508.8137994 1436.66184307 505.07775783 1430.66784995 501.3125 1424.6875 C495.84199213 1415.97766689 490.45840944 1407.21940551 485.1237793 1398.42578125 C480.79933509 1391.30101728 476.42865125 1384.20631094 472.03466797 1377.12426758 C467.67309985 1370.09306233 463.33362863 1363.04845588 459 1356 C454.17854071 1348.15926627 449.34896133 1340.32375642 444.5 1332.5 C437.65782978 1321.4588633 430.8524799 1310.39516729 424.04833984 1299.33056641 C420.70006312 1293.88632433 417.34997538 1288.44319695 414 1283 C409.96391367 1276.44197784 405.92825814 1269.8836925 401.89453125 1263.32421875 C395.7755435 1253.37502493 389.6525619 1243.42847484 383.5 1233.5 C375.28034347 1220.23582575 367.11221928 1206.9399568 358.93847656 1193.64746094 C352.13872337 1182.59019007 345.33759505 1171.53392239 338.5 1160.5 C331.65790519 1149.45881629 324.85248011 1138.39516763 318.04833984 1127.33056641 C315.36312479 1122.96445153 312.67676853 1118.59903977 309.98999023 1114.23388672 C308.6699464 1112.08871427 307.35044212 1109.94320969 306.03149414 1107.79736328 C302.91067598 1102.72126409 299.78480847 1097.64848491 296.64093018 1092.5866394 C295.1572293 1090.19709379 293.67640534 1087.80577168 292.19580078 1085.41430664 C291.1502629 1083.72823973 290.10057233 1082.04475017 289.05078125 1080.36132812 C288.41785156 1079.33845703 287.78492188 1078.31558594 287.1328125 1077.26171875 C286.57480957 1076.36412842 286.01680664 1075.46653809 285.44189453 1074.54174805 C284.04652168 1072.08200766 282.98111473 1069.64877148 282 1067 C276.67891715 1071.52207041 271.54499878 1076.24006597 266.4375 1081 C265.50055298 1081.87132568 265.50055298 1081.87132568 264.54467773 1082.76025391 C261.4015489 1085.69845882 258.30895831 1088.67317837 255.27734375 1091.7265625 C252.9703285 1094.04944799 250.63352058 1096.26784271 248.125 1098.375 C245.1153247 1100.96634205 242.28911384 1103.67254783 239.5 1106.5 C236.13885518 1109.9071879 232.66298797 1113.07458174 229.03125 1116.1875 C226.76361428 1118.2109288 224.6342305 1120.33653347 222.5 1122.5 C219.13885518 1125.9071879 215.66298797 1129.07458174 212.03125 1132.1875 C208.96025683 1134.92777083 206.11213124 1137.87946902 203.22265625 1140.80859375 C200.5729856 1143.42101068 197.78827197 1145.83302621 194.96484375 1148.25390625 C192.89179676 1150.09615675 190.94564198 1152.02401662 189 1154 C186.46027814 1156.5792506 183.87548686 1159.02217389 181.125 1161.375 C177.93317491 1164.11621449 174.95697023 1167.00685888 172 1170 C168.45767801 1173.58558699 164.82444339 1176.94891662 160.99609375 1180.22265625 C157.93333273 1182.94977223 155.09776507 1185.89404637 152.21875 1188.8125 C149.59616643 1191.39814577 146.83900963 1193.7815666 144.04296875 1196.17578125 C141.70642014 1198.26214492 139.51276386 1200.45814174 137.3125 1202.6875 C130.95730163 1209.08645189 130.95730163 1209.08645189 128 1211 C124.06568284 1209.68856095 123.60911484 1208.1567343 121.515625 1204.62109375 C121.18341446 1204.06641418 120.85120392 1203.51173462 120.50892639 1202.94024658 C119.79100859 1201.73956534 119.07705026 1200.53650976 118.36660767 1199.33139038 C116.85444882 1196.76660135 115.32353968 1194.21320543 113.79316711 1191.65925598 C113.00814027 1190.349086 112.2240399 1189.03836048 111.44084167 1187.72709656 C107.8137994 1181.66184307 104.07775783 1175.66784995 100.3125 1169.6875 C94.84199213 1160.97766689 89.45840944 1152.21940551 84.1237793 1143.42578125 C79.79933509 1136.30101728 75.42865125 1129.20631094 71.03466797 1122.12426758 C66.67309985 1115.09306233 62.33362863 1108.04845588 58 1101 C53.17854071 1093.15926627 48.34896133 1085.32375642 43.5 1077.5 C36.65782978 1066.4588633 29.8524799 1055.39516729 23.04833984 1044.33056641 C19.03926661 1037.81188022 15.02821336 1031.29441153 11.01611328 1024.77758789 C7.94762249 1019.79289128 4.88071453 1014.80724821 1.82058716 1009.81741333 C-8.91911412 992.30125406 -8.91911412 992.30125406 -20 975 C-24.79035199 977.61461707 -28.77774145 981.00788598 -32.9375 984.5 C-38.36074148 989.01235659 -43.81016434 993.4757176 -49.375 997.8125 C-54.31504651 1001.66669255 -59.19526547 1005.58256045 -64.03515625 1009.5625 C-72.60192621 1016.60553617 -81.19154678 1023.61770129 -89.9375 1030.4375 C-96.03350927 1035.19251026 -102.00475567 1040.09029618 -107.96240234 1045.01708984 C-112.39692245 1048.68372768 -116.85809345 1052.31095116 -121.36328125 1055.890625 C-124.84407105 1058.67525684 -128.29518783 1061.49574972 -131.75 1064.3125 C-136.77350767 1068.40577197 -141.82669754 1072.45381992 -146.9375 1076.4375 C-152.94290405 1081.12071598 -158.81850071 1085.95081457 -164.68334961 1090.80834961 C-169.62534335 1094.89251734 -174.63225604 1098.87891521 -179.69140625 1102.81640625 C-184.36099212 1106.46485262 -188.93635672 1110.22019832 -193.5 1114 C-200.38880212 1119.70434082 -207.37363559 1125.26744718 -214.42626953 1130.76708984 C-218.31117237 1133.81064543 -222.15414062 1136.90736193 -226 1140 C-226.33 1139.34 -226.66 1138.68 -227 1138 C-226.25 1136.15356445 -226.25 1136.15356445 -225 1133.86328125 C-224.53295654 1132.99276123 -224.06591309 1132.12224121 -223.5847168 1131.2253418 C-223.06176025 1130.264104 -222.53880371 1129.30286621 -222 1128.3125 C-197.03266622 1081.36706295 -176.53919151 1032.1223478 -158.73168945 982.0557251 C-157.93574662 979.81947631 -157.13689998 977.58427596 -156.33789062 975.34912109 C-154.86153683 971.21574847 -153.39201176 967.0799997 -151.92733765 962.94247437 C-151.3615111 961.34446712 -150.79467717 959.74681613 -150.22671509 958.14956665 C-147.16047696 949.513412 -144.30423388 940.89032981 -141.85620117 932.05615234 C-140.7252139 928.01916954 -139.4303576 924.04553772 -138.125 920.0625 C-134.88621417 909.99504899 -132.25705401 899.78904167 -129.65087891 889.54296875 C-128.81358362 886.27167553 -127.94116364 883.01040295 -127.0625 879.75 C-126.74925781 878.56921875 -126.43601562 877.3884375 -126.11328125 876.171875 C-125.51072726 873.90170907 -124.89976751 871.63435838 -124.27880859 869.36914062 C-118.54650529 848.43133309 -114.19753561 827.28690624 -110 806 C-109.67646319 804.3642517 -109.35289577 802.72850945 -109.02929688 801.09277344 C-108.09732006 796.37542936 -107.17149509 791.65690235 -106.25 786.9375 C-106.11319824 786.23706573 -105.97639648 785.53663147 -105.83544922 784.81497192 C-105.02278662 780.6434726 -104.22281851 776.46973347 -103.43426514 772.29360962 C-103.13178051 770.69601041 -102.82695535 769.09885332 -102.52032471 767.50204468 C-99.78135325 753.2012453 -97.67681132 738.88412323 -95.875 724.4375 C-95.37490982 720.47754326 -94.87128252 716.51804235 -94.3671875 712.55859375 C-94.24780319 711.61233124 -94.12841888 710.66606873 -94.00541687 709.69113159 C-93.40376548 704.96537909 -92.73979242 700.26500399 -91.94921875 695.56640625 C-90.36599017 685.61921188 -89.76026456 675.53226854 -88.9375 665.5 C-88.6779503 662.35744833 -88.4170541 659.21502941 -88.15272522 656.07287598 C-87.98951807 654.1309804 -87.82909327 652.18884835 -87.67185974 650.24645996 C-87.59830765 649.36784302 -87.52475555 648.48922607 -87.44897461 647.58398438 C-87.38616806 646.81711304 -87.32336151 646.0502417 -87.25865173 645.26013184 C-87 643 -87 643 -86.49525452 640.51989746 C-86.00410022 638.02086229 -85.77404104 635.63871403 -85.62695312 633.09765625 C-85.54181458 631.66437988 -85.54181458 631.66437988 -85.45495605 630.20214844 C-85.39763306 629.16606445 -85.34031006 628.12998047 -85.28125 627.0625 C-85.21844849 625.95551758 -85.15564697 624.84853516 -85.09094238 623.70800781 C-84.95795314 621.33750963 -84.82694868 618.96689942 -84.69775391 616.59619141 C-84.50829561 613.15085729 -84.30738626 609.70634135 -84.10546875 606.26171875 C-83.2972887 591.93450745 -82.79387911 577.60906081 -82.47045898 563.26367188 C-82.44891058 562.31264556 -82.42736217 561.36161924 -82.40516078 560.38177395 C-81.84284103 534.83941423 -81.81344329 509.29450929 -81.76644156 483.74706051 C-81.75305295 476.68372013 -81.7327411 469.62040359 -81.71177601 462.55708224 C-81.67430879 449.93373201 -81.6392398 437.31037684 -81.60717773 424.68701172 C-81.604327 423.56576789 -81.604327 423.56576789 -81.60141867 422.42187268 C-81.57450904 411.78354996 -81.55061966 401.14522267 -81.52803367 390.50689 C-81.52643637 389.75454306 -81.52483906 389.00219612 -81.52319336 388.22705078 C-81.52159989 387.47566418 -81.52000643 386.72427759 -81.51836468 385.9501217 C-81.49142788 373.33872546 -81.45698861 360.72736264 -81.41653961 348.11600256 C-81.39209018 340.40425415 -81.37358582 332.692541 -81.363384 324.98076034 C-81.35499264 319.06304203 -81.3363808 313.14538128 -81.31432343 307.22769737 C-81.3069649 304.83391287 -81.30277412 302.44011573 -81.30232811 300.04631996 C-81.29463599 277.1733283 -80.3397241 254.2246056 -76.96875 231.57421875 C-76.4334237 227.94865213 -75.90233753 224.32281522 -75.390625 220.69384766 C-72.29816195 198.82275781 -68.52771248 177.40093173 -63 156 C-62.79052734 155.16952148 -62.58105469 154.33904297 -62.36523438 153.48339844 C-48.7729747 99.88505487 -26.2666393 48.51602789 0 0 Z " fill="#FEFEFE" transform="translate(472,432)"/>
<path d="M0 0 C1.15436554 -0.00517639 2.30873108 -0.01035278 3.49807739 -0.01568604 C17.18925528 -0.06405917 30.61775524 0.37702938 44.21520996 1.99975586 C47.45234601 2.37482673 50.69605229 2.66677562 53.94140625 2.9609375 C66.31417644 4.12470005 78.63983707 5.44764457 90.9375 7.25 C91.99976807 7.40388184 93.06203613 7.55776367 94.15649414 7.71630859 C100.49849676 8.68108081 106.70435564 9.96503806 112.94360352 11.45117188 C116.60160235 12.30275296 120.27004455 13.0734226 123.94921875 13.828125 C211.50024213 31.8004143 293.2934158 68.89449738 364.375 123.25 C365.01711426 123.74048828 365.65922852 124.23097656 366.32080078 124.73632812 C377.55665211 133.35898615 388.39849987 142.44019378 398.86328125 151.984375 C400.93303788 153.85134055 403.02390355 155.68498436 405.12890625 157.51171875 C409.51697841 161.34352753 413.76658302 165.31131183 418 169.3125 C418.72445312 169.99376953 419.44890625 170.67503906 420.1953125 171.37695312 C420.906875 172.04791016 421.6184375 172.71886719 422.3515625 173.41015625 C423.38313477 174.38033691 423.38313477 174.38033691 424.43554688 175.37011719 C426.216181 177.09605912 427.88852744 178.88599697 429.5703125 180.70703125 C432.61983587 183.47198907 433.60292519 184.02788588 437.625 183.875 C454.06566652 182.92455556 468.64387803 177.25711139 483.375 170.25 C484.12136719 169.89808594 484.86773438 169.54617188 485.63671875 169.18359375 C502.28245902 161.20940488 517.41322044 150.26169445 531.375 138.25 C532.48995231 137.31789313 533.60590197 136.38697842 534.72265625 135.45703125 C548.31774374 124.06599865 560.42176823 111.71288728 571.0625 97.5 C577.66782068 88.67756238 577.66782068 88.67756238 581.375 85.25 C568.42498507 131.43514095 542.87022849 174.40965296 515.375 213.25 C514.87677734 213.95543945 514.37855469 214.66087891 513.86523438 215.38769531 C500.88026626 233.71703698 487.01248621 251.32117038 472.45141602 268.421875 C469.61622675 271.75727583 466.85493023 275.13982432 464.125 278.5625 C459.63127715 284.09448372 454.77640723 289.25694839 449.86621094 294.41723633 C446.11670319 298.36097533 442.4904705 302.38327299 438.92431641 306.4934082 C436.59719433 309.13186445 434.09147466 311.55823136 431.5625 314 C429.78466868 315.8286265 428.1463611 317.68110649 426.49609375 319.62109375 C421.38979778 325.49748392 415.83474066 330.93930048 410.32348633 336.43188477 C408.44171726 338.30829475 406.56535262 340.18998969 404.68945312 342.07226562 C399.24565568 347.51876833 393.8125495 352.90726024 387.94311523 357.90014648 C385.8048706 359.74077463 383.83870107 361.72587736 381.875 363.75 C378.58645472 367.07769463 375.21118376 370.20336441 371.66015625 373.24609375 C369.31021916 375.30680781 367.02466874 377.42474187 364.74072266 379.55786133 C359.33574678 384.60507403 353.82439205 389.40657508 348.0546875 394.0390625 C345.24246685 396.3593495 342.55702737 398.78071134 339.875 401.25 C334.54875463 406.14500107 329.00632248 410.71276303 323.375 415.25 C321.62408206 416.68638178 319.87409317 418.12389674 318.125 419.5625 C307.65378592 428.12443288 297.08695466 436.55721599 286.32910156 444.75683594 C284.04579261 446.50155328 281.76918419 448.25486568 279.4921875 450.0078125 C269.32652152 457.8165896 259.06948908 465.43404581 248.53808594 472.74169922 C246.27939116 474.3166672 244.03332873 475.90845409 241.7890625 477.50390625 C228.22404896 487.12213101 214.35132629 496.24448433 200.375 505.25 C199.06136475 506.09739746 199.06136475 506.09739746 197.72119141 506.96191406 C172.47270126 523.20422101 146.34131895 538.0128523 119.75 551.9375 C118.8329126 552.41840088 117.9158252 552.89930176 116.97094727 553.39477539 C114.44976673 554.70266845 111.91575455 555.98063781 109.375 557.25 C108.56063477 557.67490723 107.74626953 558.09981445 106.90722656 558.53759766 C101.14269811 561.384205 101.14269811 561.384205 97.73828125 560.7890625 C94.64729746 558.77609124 91.58244525 556.7424603 88.5625 554.625 C72.66565244 543.79620207 53.26964603 534.17650245 34.375 530.25 C33.11042969 529.98574219 31.84585938 529.72148438 30.54296875 529.44921875 C5.74954856 524.49401816 -18.10524345 525.11683741 -42.625 531.25 C-43.44500488 531.45286621 -44.26500977 531.65573242 -45.10986328 531.86474609 C-65.60092606 537.07124199 -84.95260321 546.52024786 -101.328125 559.94921875 C-103.625 561.25 -103.625 561.25 -105.85107422 561.02758789 C-109.2368543 560.07848478 -112.15640067 558.6789582 -115.3046875 557.109375 C-115.94545227 556.79106216 -116.58621704 556.47274933 -117.24639893 556.14479065 C-119.33464694 555.10376265 -121.41765021 554.05277159 -123.5 553 C-124.57311432 552.46045181 -124.57311432 552.46045181 -125.66790771 551.91000366 C-138.55666792 545.42353987 -151.17245104 538.541384 -163.625 531.25 C-164.54958008 530.7127832 -165.47416016 530.17556641 -166.42675781 529.62207031 C-185.63028342 518.46031086 -204.26038109 506.5495049 -222.75 494.25 C-223.5067804 493.74729584 -224.26356079 493.24459167 -225.04327393 492.72665405 C-239.21277002 483.30560382 -253.19838784 473.62621727 -266.875 463.5 C-267.64674561 462.92983154 -268.41849121 462.35966309 -269.21362305 461.7722168 C-286.41646229 449.02293069 -303.46240512 436.03214811 -319.9921875 422.41796875 C-321.74229526 420.97685627 -323.49749612 419.54190597 -325.2578125 418.11328125 C-332.21848367 412.46154096 -339.03131992 406.65140088 -345.82226562 400.79833984 C-347.59985913 399.27159309 -349.38452015 397.75358292 -351.171875 396.23828125 C-357.57963465 390.79741231 -363.87581731 385.26823787 -370.01196289 379.52148438 C-372.75695641 376.95351419 -375.53840643 374.44170581 -378.37768555 371.97802734 C-392.2493039 359.85761922 -405.2424186 346.79354479 -418.24633789 333.7590332 C-420.71689645 331.28271457 -423.1920086 328.81100308 -425.66841221 326.34053135 C-428.07435353 323.93909546 -430.47645426 321.53383299 -432.87890625 319.12890625 C-433.75503067 318.25480606 -434.63115509 317.38070587 -435.53382874 316.4801178 C-439.88210652 312.11530111 -444.09791746 307.69600253 -448.10145569 303.01165771 C-450.79886244 299.89267563 -453.66398864 296.92989588 -456.5 293.9375 C-461.31433327 288.81843001 -465.90590011 283.60729114 -470.29296875 278.11328125 C-473.11504366 274.6483216 -476.05440033 271.2973647 -479 267.9375 C-484.61135701 261.50819164 -489.93970058 254.90859106 -495.14892578 248.15136719 C-496.73975862 246.10217663 -498.35072312 244.06995322 -499.96484375 242.0390625 C-507.29681941 232.77686744 -514.14896885 223.29685153 -520.7421875 213.49609375 C-522.95016864 210.21837643 -525.24294802 207.0294747 -527.625 203.875 C-552.7748482 169.63739152 -577.74695702 125.82846797 -587.625 84.25 C-583.9036574 87.6992633 -581.08864046 91.6015915 -578.125 95.6875 C-572.43150042 103.38575296 -566.30557578 110.40188023 -559.625 117.25 C-558.68019775 118.22549805 -558.68019775 118.22549805 -557.71630859 119.22070312 C-549.74596289 127.42450606 -541.73410607 135.30027329 -532.625 142.25 C-531.46067008 143.16632697 -530.29662636 144.08301768 -529.1328125 145 C-507.10801577 162.14422167 -479.22862871 180.63888037 -450.625 183.25 C-449.664729 183.39703369 -448.70445801 183.54406738 -447.71508789 183.69555664 C-442.48623719 184.18572501 -439.00982386 184.17270244 -434.55224609 181.20263672 C-431.3961993 178.42388478 -428.60712763 175.3221871 -425.8125 172.1875 C-424.83462824 171.13564292 -423.85351951 170.08678553 -422.86914062 169.04101562 C-421.43274101 167.51378776 -419.99900294 165.98495104 -418.57801819 164.44335938 C-414.83405848 160.39305704 -410.84948745 156.78375227 -406.625 153.25 C-405.01731627 151.79554483 -403.41260285 150.33779105 -401.8125 148.875 C-396.56301145 144.14486725 -391.14131394 139.66451049 -385.625 135.25 C-385.11517578 134.84056152 -384.60535156 134.43112305 -384.08007812 134.00927734 C-359.31576576 114.16296948 -333.15029751 96.06076767 -305.625 80.25 C-304.90151367 79.83379395 -304.17802734 79.41758789 -303.43261719 78.98876953 C-298.20445634 75.99871553 -292.92531665 73.10977831 -287.625 70.25 C-286.73312988 69.76450684 -285.84125977 69.27901367 -284.92236328 68.77880859 C-261.30045043 55.97233131 -236.72478654 44.81862571 -211.2734375 36.15332031 C-208.50938315 35.21056579 -205.75496812 34.24239375 -203 33.2734375 C-188.1985078 28.13658038 -173.17802192 24.0090839 -158.01123047 20.12109375 C-155.07746029 19.36639353 -152.14929243 18.5942765 -149.22265625 17.8125 C-124.75270779 11.35675544 -99.6697496 7.92063549 -74.63009644 4.5234375 C-72.64813848 4.25315542 -70.66695734 3.97719678 -68.68579102 3.70117188 C-45.81270091 0.55734548 -23.05749697 0.04741237 0 0 Z " fill="#FEFEFE" transform="translate(1002.625,102.75)"/>
<path d="M0 0 C7.77926202 5.76494745 14.94575649 12.10593298 21.9375 18.79296875 C22.8759375 19.67855469 23.814375 20.56414063 24.78125 21.4765625 C62.32424608 57.80679325 78.80313018 111.06858599 83.9375 161.79296875 C84.02629425 162.65322662 84.1150885 163.5134845 84.20657349 164.39981079 C85.52415897 177.64163628 86.09058737 190.79416611 85.95703125 204.09375 C85.9505765 204.78788183 85.94412174 205.48201366 85.93747139 206.19717979 C85.87478007 212.62170715 85.78948282 219.04575285 85.67016602 225.46948242 C85.60509337 229.03967364 85.56550345 232.6094469 85.54099083 236.18013573 C85.52029749 238.14595841 85.47183943 240.11142868 85.4223175 242.07673645 C85.35882156 253.38055958 87.99923558 263.86745178 96.06640625 272.16015625 C99.13300464 274.8362275 102.36738279 276.85544962 105.9375 278.79296875 C106.70320313 279.21707031 107.46890625 279.64117188 108.2578125 280.078125 C110.05776637 281.06617307 111.86152083 282.04731311 113.66796875 283.0234375 C136.43517399 295.34547331 158.67056155 308.59602579 180.9375 321.79296875 C178.2423331 323.87127066 175.50424402 325.72318867 172.5859375 327.47265625 C156.52618015 337.19634945 141.26692942 347.63722303 126.9375 359.79296875 C125.48537109 360.96859375 125.48537109 360.96859375 124.00390625 362.16796875 C115.75694797 368.9245739 108.17457052 376.34082122 100.625 383.85546875 C100.11321198 384.36208038 99.60142395 384.86869202 99.0741272 385.39065552 C92.22214888 392.18795758 85.94841263 399.2269352 79.9375 406.79296875 C78.8533119 408.09867933 77.76520666 409.40115487 76.671875 410.69921875 C25.50861321 472.04639798 -3.05277942 549.1527758 -30.5625 631.10546875 C-30.8123465 631.85382996 -31.06219299 632.60219116 -31.3196106 633.37322998 C-34.35415389 642.4784971 -37.26376436 651.61205692 -40.0625 660.79296875 C-43.51635284 672.01159173 -47.14341207 683.16384523 -50.875 694.29296875 C-51.38230493 695.80984786 -51.88946696 697.32677477 -52.39648438 698.84375 C-53.61685323 702.49403927 -54.8391179 706.14368831 -56.0625 709.79296875 C-58.30236534 706.43317073 -59.30394511 703.11578183 -60.4375 699.29296875 C-61.88195062 694.53283529 -63.36680405 689.82406078 -65.125 685.16796875 C-66.58383341 681.26763174 -67.78806974 677.35181282 -68.90234375 673.33984375 C-70.96232422 666.06089825 -73.22476925 658.86189871 -75.5625 651.66796875 C-75.77326172 651.01766693 -75.98402344 650.36736511 -76.20117188 649.69735718 C-104.59913512 562.0873759 -135.69807175 472.35716774 -197.0625 401.79296875 C-197.67480469 401.08011719 -198.28710938 400.36726563 -198.91796875 399.6328125 C-209.26685561 387.66153483 -219.99895097 376.05848447 -232.0625 365.79296875 C-232.96097656 365.00535156 -233.85945312 364.21773437 -234.78515625 363.40625 C-252.23042487 348.21883768 -271.39298423 335.20683622 -291.54296875 323.87890625 C-292.04441406 323.52054688 -292.54585937 323.1621875 -293.0625 322.79296875 C-293.0625 322.13296875 -293.0625 321.47296875 -293.0625 320.79296875 C-292.58232422 320.53306152 -292.10214844 320.2731543 -291.60742188 320.00537109 C-278.34737206 312.81088969 -265.29199525 305.30386938 -252.27880859 297.67382812 C-246.61366747 294.36092034 -240.93281092 291.07542941 -235.25 287.79296875 C-234.19538574 287.18227539 -233.14077148 286.57158203 -232.05419922 285.94238281 C-226.22893023 282.5795508 -220.37062127 279.31080449 -214.41870117 276.17675781 C-206.19421771 271.3465462 -202.01250349 263.64297923 -199.0625 254.79296875 C-198.95466452 252.65167225 -198.90629817 250.50722086 -198.88891602 248.36328125 C-198.882229 247.71370956 -198.87554199 247.06413788 -198.86865234 246.3948822 C-198.85459773 244.98065058 -198.84270497 243.56639622 -198.83270454 242.15213013 C-198.81616182 239.88446303 -198.79289949 237.61695294 -198.76780701 235.34936523 C-198.69754095 228.89949607 -198.63817428 222.44954907 -198.58569336 215.99951172 C-198.36898518 190.08929459 -197.93008976 164.2942534 -193.25 138.73046875 C-193.11933136 137.99324585 -192.98866272 137.25602295 -192.85403442 136.49645996 C-190.88550116 125.39341312 -188.54956365 114.52587893 -185.0625 103.79296875 C-184.68609375 102.5503125 -184.3096875 101.30765625 -183.921875 100.02734375 C-172.31098768 63.02731617 -150.5529712 29.85375173 -120.0625 5.79296875 C-118.63550781 4.65794922 -118.63550781 4.65794922 -117.1796875 3.5 C-81.17132112 -24.39448115 -37.46172099 -26.99728617 0 0 Z " fill="#FEFEFE" transform="translate(1056.0625,744.20703125)"/>
<path d="M0 0 C3.12319778 1.56159889 3.67412084 4.640608 4.875 7.75 C5.13893555 8.42667725 5.40287109 9.10335449 5.67480469 9.80053711 C14.91962391 33.85564681 18.33929018 59.79812263 8.10693359 84.12304688 C4.23654478 92.56826344 -0.75092178 100.11561808 -7 107 C-7.74894531 107.83015625 -8.49789063 108.6603125 -9.26953125 109.515625 C-30.51129862 131.88982908 -63.8720094 145.02527299 -94.46533203 146.12451172 C-126.45739576 146.77037031 -154.92793894 143.14417348 -184 129 C-185.10214844 128.46503906 -186.20429687 127.93007813 -187.33984375 127.37890625 C-189.57197069 126.27379992 -191.79265406 125.15358783 -194 124 C-194 123.34 -194 122.68 -194 122 C-193.27224365 121.64397705 -192.5444873 121.2879541 -191.79467773 120.92114258 C-176.1046597 113.22203854 -160.71420814 105.20999846 -145.57080078 96.47119141 C-142.4075169 94.66093987 -139.21771315 92.90246102 -136.0222168 91.14990234 C-125.51011252 85.38224023 -115.22172317 79.26625347 -105 73 C-104.27361328 72.55527344 -103.54722656 72.11054687 -102.79882812 71.65234375 C-80.03214219 57.6452918 -57.60659187 42.73979452 -36 27 C-35.25717773 26.46004395 -34.51435547 25.92008789 -33.74902344 25.36376953 C-22.37088617 17.0762497 -11.14848815 8.59332889 0 0 Z " fill="#FDFDFD" transform="translate(1349,620)"/>
<path d="M0 0 C3.09722348 1.42958874 5.65837226 3.15002387 8.3515625 5.23828125 C9.61432007 6.21112061 9.61432007 6.21112061 10.90258789 7.20361328 C11.80098389 7.8995459 12.69937988 8.59547852 13.625 9.3125 C23.28674386 16.73233358 33.06829316 23.94673975 43 31 C43.77633789 31.55365234 44.55267578 32.10730469 45.35253906 32.67773438 C58.66413703 42.15745132 72.25079322 51.16916847 86 60 C86.80228027 60.51771973 87.60456055 61.03543945 88.43115234 61.56884766 C102.71624112 70.77573753 117.33302337 79.4201882 132 88 C132.90443848 88.53093262 133.80887695 89.06186523 134.74072266 89.60888672 C146.23618766 96.34102523 157.92440283 102.68883058 169.6875 108.9375 C170.37540619 109.30293915 171.06331238 109.6683783 171.77206421 110.04489136 C179.46666538 114.12693019 187.18161791 118.15851811 195 122 C195 122.66 195 123.32 195 124 C154.12430729 145.73869937 106.79740439 153.51024973 61.8984375 139.97924805 C34.71522661 131.25971938 9.01455086 114.37804348 -4.36865234 88.58496094 C-10.32077246 76.56940834 -12.1742341 65.43461753 -12.125 52.125 C-12.12886719 51.08730469 -12.13273438 50.04960938 -12.13671875 48.98046875 C-12.12524919 39.88510569 -11.46018631 31.53034033 -8.8125 22.8125 C-8.49019409 21.72980835 -8.49019409 21.72980835 -8.16137695 20.62524414 C-5.97295189 13.50915679 -3.11601114 6.75671143 0 0 Z " fill="#FDFDFD" transform="translate(649,620)"/>
<path d="M0 0 C1 2 1 2 0.44140625 3.9453125 C0.15136719 4.66460937 -0.13867188 5.38390625 -0.4375 6.125 C-0.72496094 6.84945312 -1.01242187 7.57390625 -1.30859375 8.3203125 C-1.53675781 8.87460938 -1.76492188 9.42890625 -2 10 C-2.99 10 -3.98 10 -5 10 C-5.99 10.495 -5.99 10.495 -7 11 C-5.22054913 6.95579349 -2.60470327 3.53921513 0 0 Z " fill="#DADADB" transform="translate(1583,188)"/>
</svg>
